<?xml version="1.0" encoding="UTF-8" standalone="no"?>
<!DOCTYPE svg PUBLIC "-//W3C//DTD SVG 1.1//EN"
 "http://www.w3.org/Graphics/SVG/1.1/DTD/svg11.dtd">
<!-- Generated by graphviz version 3.0.0 (20220226.1711)
 -->
<!-- Pages: 1 -->
<svg width="436pt" height="130pt"
 viewBox="0.00 0.00 435.50 129.88" xmlns="http://www.w3.org/2000/svg" xmlns:xlink="http://www.w3.org/1999/xlink">
<g id="graph0" class="graph" transform="scale(1 1) rotate(0) translate(4 125.88)">
<polygon fill="white" stroke="transparent" points="-4,4 -4,-125.88 431.5,-125.88 431.5,4 -4,4"/>
<!-- is_1st_class -->
<g id="node1" class="node">
<title>is_1st_class</title>
<polygon fill="lightgray" stroke="black" points="60,-121.88 0,-121.88 0,-103.88 60,-103.88 60,-121.88"/>
<text text-anchor="middle" x="30" y="-110.68" font-family="Times New Roman,serif" font-size="9.00">is_1st_class</text>
</g>
<!-- is_2nd_class -->
<g id="node2" class="node">
<title>is_2nd_class</title>
<polygon fill="lightgray" stroke="black" points="140,-121.88 78,-121.88 78,-103.88 140,-103.88 140,-121.88"/>
<text text-anchor="middle" x="109" y="-110.68" font-family="Times New Roman,serif" font-size="9.00">is_2nd_class</text>
</g>
<!-- is_3rd_class -->
<g id="node3" class="node">
<title>is_3rd_class</title>
<polygon fill="lightgray" stroke="black" points="219.5,-121.88 158.5,-121.88 158.5,-103.88 219.5,-103.88 219.5,-121.88"/>
<text text-anchor="middle" x="189" y="-110.68" font-family="Times New Roman,serif" font-size="9.00">is_3rd_class</text>
</g>
<!-- Survived -->
<g id="node8" class="node">
<title>Survived</title>
<ellipse fill="lightblue" stroke="black" cx="252" cy="-33.94" rx="33.88" ry="33.88"/>
<text text-anchor="middle" x="252" y="-31.74" font-family="Times New Roman,serif" font-size="9.00">Survived</text>
</g>
<!-- is_3rd_class&#45;&gt;Survived -->
<g id="edge1" class="edge">
<title>is_3rd_class&#45;&gt;Survived</title>
<path fill="none" stroke="red" stroke-width="0.17" d="M195.74,-103.65C202.63,-95.24 213.78,-81.62 224.35,-68.71"/>
<polygon fill="red" stroke="red" stroke-width="0.17" points="227.18,-70.78 230.81,-60.82 221.76,-66.34 227.18,-70.78"/>
</g>
<!-- Sex -->
<g id="node4" class="node">
<title>Sex</title>
<polygon fill="lightgray" stroke="black" points="266.5,-121.88 237.5,-121.88 237.5,-103.88 266.5,-103.88 266.5,-121.88"/>
<text text-anchor="middle" x="252" y="-110.68" font-family="Times New Roman,serif" font-size="9.00">Sex</text>
</g>
<!-- Sex&#45;&gt;Survived -->
<g id="edge2" class="edge">
<title>Sex&#45;&gt;Survived</title>
<path fill="none" stroke="red" stroke-width="0.52" d="M252,-103.65C252,-97.32 252,-88.04 252,-78.33"/>
<polygon fill="red" stroke="red" stroke-width="0.52" points="255.5,-78.17 252,-68.17 248.5,-78.17 255.5,-78.17"/>
</g>
<!-- Age -->
<g id="node5" class="node">
<title>Age</title>
<polygon fill="lightgray" stroke="black" points="315.5,-121.88 284.5,-121.88 284.5,-103.88 315.5,-103.88 315.5,-121.88"/>
<text text-anchor="middle" x="300" y="-110.68" font-family="Times New Roman,serif" font-size="9.00">Age</text>
</g>
<!-- Age&#45;&gt;Survived -->
<g id="edge3" class="edge">
<title>Age&#45;&gt;Survived</title>
<path fill="none" stroke="red" stroke-width="0.21" d="M294.86,-103.65C290.04,-95.91 282.46,-83.77 275.01,-71.83"/>
<polygon fill="red" stroke="red" stroke-width="0.21" points="277.91,-69.87 269.65,-63.24 271.98,-73.57 277.91,-69.87"/>
</g>
<!-- SibSp -->
<g id="node6" class="node">
<title>SibSp</title>
<polygon fill="lightgray" stroke="black" points="372,-121.88 334,-121.88 334,-103.88 372,-103.88 372,-121.88"/>
<text text-anchor="middle" x="353" y="-110.68" font-family="Times New Roman,serif" font-size="9.00">SibSp</text>
</g>
<!-- Parch -->
<g id="node7" class="node">
<title>Parch</title>
<polygon fill="lightgray" stroke="black" points="427.5,-121.88 390.5,-121.88 390.5,-103.88 427.5,-103.88 427.5,-121.88"/>
<text text-anchor="middle" x="409" y="-110.68" font-family="Times New Roman,serif" font-size="9.00">Parch</text>
</g>
</g>
</svg>
